#N canvas 395 265 1268 820 12;
#X obj 28 228 netsend;
#X msg 44 92 disconnect;
#X floatatom 28 295 2 0 0 0 - - - 0;
#X obj 28 258 tgl 19 0 empty empty empty 0 -10 0 12 #dfdfdf #000000 #000000 0 1;
#X msg 28 58 connect localhost 2907;
#X obj 249 33 tgl 19 0 empty empty empty 0 -10 0 12 #fcfcfc #000000 #000000 0 1;
#X obj 249 111 float;
#X obj 311 110 + 1;
#X floatatom 249 147 5 0 0 0 - - - 0;
#X obj 249 176 mod 8;
#X obj 426 235 sel 0 1 2 3 4 5 6 7;
#X obj 426 266 bng 19 250 50 0 empty empty empty 0 -10 0 12 #fcfcfc #000000 #000000;
#X obj 435 290 else/knob 50 0 8 0 1 empty all_vala #dfdfdf #7c7c7c black 0 0 0 0 1 320 0 0;
#X floatatom 435 357 5 0 0 0 - - - 0;
#X obj 427 382 f;
#X obj 427 453 t b;
#X obj 437 476 else/knob 50 0 8 0 0 empty all_valb #dfdfdf #7c7c7c black 0 0 0 0 1 320 0 0;
#X floatatom 437 543 5 0 0 0 - - - 0;
#X obj 429 569 f;
#X obj 489 266 bng 19 250 50 0 empty empty empty 0 -10 0 12 #fcfcfc #000000 #000000;
#X obj 498 290 else/knob 50 0 8 0 1 empty all_vala #dfdfdf #7c7c7c black 0 0 0 0 1 320 0 0;
#X floatatom 498 357 5 0 0 0 - - - 0;
#X obj 490 382 f;
#X obj 490 453 t b;
#X obj 500 476 else/knob 50 0 8 0 0 empty all_valb #dfdfdf #7c7c7c black 0 0 0 0 1 320 0 0;
#X floatatom 500 543 5 0 0 0 - - - 0;
#X obj 492 569 f;
#X obj 552 265 bng 19 250 50 0 empty empty empty 0 -10 0 12 #fcfcfc #000000 #000000;
#X obj 561 289 else/knob 50 0 8 0 1 empty all_vala #dfdfdf #7c7c7c black 0 0 0 0 1 320 0 0;
#X floatatom 561 356 5 0 0 0 - - - 0;
#X obj 553 381 f;
#X obj 553 452 t b;
#X obj 563 475 else/knob 50 0 8 0 0 empty all_valb #dfdfdf #7c7c7c black 0 0 0 0 1 320 0 0;
#X floatatom 563 542 5 0 0 0 - - - 0;
#X obj 555 568 f;
#X obj 616 265 bng 19 250 50 0 empty empty empty 0 -10 0 12 #fcfcfc #000000 #000000;
#X obj 625 289 else/knob 50 0 8 0 1 empty all_vala #dfdfdf #7c7c7c black 0 0 0 0 1 320 0 0;
#X floatatom 625 356 5 0 0 0 - - - 0;
#X obj 617 381 f;
#X obj 617 452 t b;
#X obj 627 475 else/knob 50 0 8 0 0 empty all_valb #dfdfdf #7c7c7c black 0 0 0 0 1 320 0 0;
#X floatatom 627 542 5 0 0 0 - - - 0;
#X obj 619 568 f;
#X obj 678 266 bng 19 250 50 0 empty empty empty 0 -10 0 12 #fcfcfc #000000 #000000;
#X obj 687 290 else/knob 50 0 8 0 1 empty all_vala #dfdfdf #7c7c7c black 0 0 0 0 1 320 0 0;
#X floatatom 687 357 5 0 0 0 - - - 0;
#X obj 679 382 f;
#X obj 679 453 t b;
#X obj 689 476 else/knob 50 0 8 0 0 empty all_valb #dfdfdf #7c7c7c black 0 0 0 0 1 320 0 0;
#X floatatom 689 543 5 0 0 0 - - - 0;
#X obj 681 569 f;
#X obj 740 266 bng 19 250 50 0 empty empty empty 0 -10 0 12 #fcfcfc #000000 #000000;
#X obj 749 290 else/knob 50 0 8 0 1 empty all_vala #dfdfdf #7c7c7c black 0 0 0 0 1 320 0 0;
#X floatatom 749 357 5 0 0 0 - - - 0;
#X obj 741 382 f;
#X obj 741 453 t b;
#X obj 751 476 else/knob 50 0 8 0 0 empty all_valb #dfdfdf #7c7c7c black 0 0 0 0 1 320 0 0;
#X floatatom 751 543 5 0 0 0 - - - 0;
#X obj 743 569 f;
#X obj 803 265 bng 19 250 50 0 empty empty empty 0 -10 0 12 #fcfcfc #000000 #000000;
#X obj 812 289 else/knob 50 0 8 0 1 empty all_vala #dfdfdf #7c7c7c black 0 0 0 0 1 320 0 0;
#X floatatom 812 356 5 0 0 0 - - - 0;
#X obj 804 381 f;
#X obj 804 452 t b;
#X obj 814 475 else/knob 50 0 8 0 0 empty all_valb #dfdfdf #7c7c7c black 0 0 0 0 1 320 0 0;
#X floatatom 814 542 5 0 0 0 - - - 0;
#X obj 806 568 f;
#X obj 867 265 bng 19 250 50 0 empty empty empty 0 -10 0 12 #fcfcfc #000000 #000000;
#X obj 876 289 else/knob 50 0 8 0 1 empty all_vala #dfdfdf #7c7c7c black 0 0 0 0 1 320 0 0;
#X floatatom 876 356 5 0 0 0 - - - 0;
#X obj 868 381 f;
#X obj 868 452 t b;
#X obj 878 475 else/knob 50 0 8 0 0 empty all_valb #dfdfdf #7c7c7c black 0 0 0 0 1 320 0 0;
#X floatatom 878 542 5 0 0 0 - - - 0;
#X obj 870 568 f;
#X obj 249 70 metro 120;
#X floatatom 322 368 5 0 8 0 - - - 0;
#X floatatom 322 540 5 0 8 0 - - - 0;
#X text 53 296 1 if connected;
#X obj 28 29 loadbang;
#X obj 291 27 loadbang;
#X floatatom 362 53 5 80 160 0 - - - 0;
#X msg 362 27 125;
#X floatatom 362 105 5 0 0 0 - - - 0;
#X obj 53 118 r value;
#X msg 181 228 list note \$1;
#X obj 181 254 s value;
#X obj 319 458 s value;
#X obj 321 638 s value;
#X obj 336 176 s value;
#X msg 336 150 list bpm \$1;
#X obj 492 18 tgl 19 0 empty empty empty 0 -10 0 12 #fcfcfc #000000 #000000 0 1;
#X obj 520 17 tgl 19 0 empty empty empty 0 -10 0 12 #fcfcfc #000000 #000000 0 1;
#X obj 512 48 t b f;
#X msg 492 108 list m1 \$1 \$2;
#X obj 492 80 pack;
#X msg 53 148 list \$1 \$2;
#X obj 84 171 r v2;
#X msg 58 200 list \$1 \$2 \$3;
#X obj 492 139 s v2;
#X obj 599 18 tgl 19 0 empty empty empty 0 -10 0 12 #fcfcfc #000000 #000000 0 1;
#X obj 627 17 tgl 19 0 empty empty empty 0 -10 0 12 #fcfcfc #000000 #000000 0 1;
#X obj 619 48 t b f;
#X obj 599 80 pack;
#X obj 599 139 s v2;
#X obj 704 18 tgl 19 0 empty empty empty 0 -10 0 12 #fcfcfc #000000 #000000 0 1;
#X obj 732 17 tgl 19 0 empty empty empty 0 -10 0 12 #fcfcfc #000000 #000000 0 1;
#X obj 724 48 t b f;
#X obj 704 80 pack;
#X obj 704 139 s v2;
#X obj 811 18 tgl 19 0 empty empty empty 0 -10 0 12 #fcfcfc #000000 #000000 0 1;
#X obj 839 17 tgl 19 0 empty empty empty 0 -10 0 12 #fcfcfc #000000 #000000 0 1;
#X obj 831 48 t b f;
#X obj 811 80 pack;
#X obj 811 139 s v2;
#X obj 917 18 tgl 19 0 empty empty empty 0 -10 0 12 #fcfcfc #000000 #000000 0 1;
#X obj 945 17 tgl 19 0 empty empty empty 0 -10 0 12 #fcfcfc #000000 #000000 0 1;
#X obj 937 48 t b f;
#X obj 917 80 pack;
#X obj 917 139 s v2;
#X obj 1024 18 tgl 19 0 empty empty empty 0 -10 0 12 #fcfcfc #000000 #000000 0 1;
#X obj 1052 17 tgl 19 0 empty empty empty 0 -10 0 12 #fcfcfc #000000 #000000 0 1;
#X obj 1044 48 t b f;
#X obj 1024 80 pack;
#X obj 1024 139 s v2;
#X obj 1129 18 tgl 19 0 empty empty empty 0 -10 0 12 #fcfcfc #000000 #000000 0 1;
#X obj 1157 17 tgl 19 0 empty empty empty 0 -10 0 12 #fcfcfc #000000 #000000 0 1;
#X obj 1149 48 t b f;
#X obj 1129 80 pack;
#X obj 1129 139 s v2;
#X msg 599 108 list m2 \$1 \$2;
#X msg 704 108 list m3 \$1 \$2;
#X msg 811 108 list m4 \$1 \$2;
#X msg 917 108 list m5 \$1 \$2;
#X msg 1024 108 list m6 \$1 \$2;
#X msg 1129 108 list m7 \$1 \$2;
#X obj 81 410 float;
#X obj 143 409 + 1;
#X floatatom 81 446 5 0 0 0 - - - 0;
#X obj 81 369 metro 120;
#X obj 81 501 s value;
#X msg 81 475 list tick \$1;
#X msg 319 432 list vala \$1;
#X msg 321 612 list valb \$1;
#X obj 429 612 t b;
#X obj 439 635 else/knob 50 0 8 0 0 empty all_valc #dfdfdf #7c7c7c black 0 0 0 0 1 320 0 0;
#X floatatom 439 702 5 0 0 0 - - - 0;
#X obj 431 728 f;
#X obj 492 612 t b;
#X obj 502 635 else/knob 50 0 8 0 0 empty all_valc #dfdfdf #7c7c7c black 0 0 0 0 1 320 0 0;
#X floatatom 502 702 5 0 0 0 - - - 0;
#X obj 494 728 f;
#X obj 555 611 t b;
#X obj 565 634 else/knob 50 0 8 0 0 empty all_valc #dfdfdf #7c7c7c black 0 0 0 0 1 320 0 0;
#X floatatom 565 701 5 0 0 0 - - - 0;
#X obj 557 727 f;
#X obj 619 611 t b;
#X obj 629 634 else/knob 50 0 8 0 0 empty all_valc #dfdfdf #7c7c7c black 0 0 0 0 1 320 0 0;
#X floatatom 629 701 5 0 0 0 - - - 0;
#X obj 621 727 f;
#X obj 681 612 t b;
#X obj 691 635 else/knob 50 0 8 0 0 empty all_valc #dfdfdf #7c7c7c black 0 0 0 0 1 320 0 0;
#X floatatom 691 702 5 0 0 0 - - - 0;
#X obj 683 728 f;
#X obj 743 612 t b;
#X obj 753 635 else/knob 50 0 8 0 0 empty all_valc #dfdfdf #7c7c7c black 0 0 0 0 1 320 0 0;
#X floatatom 753 702 5 0 0 0 - - - 0;
#X obj 745 728 f;
#X obj 806 611 t b;
#X obj 816 634 else/knob 50 0 8 0 0 empty all_valc #dfdfdf #7c7c7c black 0 0 0 0 1 320 0 0;
#X floatatom 816 701 5 0 0 0 - - - 0;
#X obj 808 727 f;
#X obj 870 611 t b;
#X obj 880 634 else/knob 50 0 8 0 0 empty all_valc #dfdfdf #7c7c7c black 0 0 0 0 1 320 0 0;
#X floatatom 880 701 5 0 0 0 - - - 0;
#X obj 872 727 f;
#X floatatom 324 699 5 0 8 0 - - - 0;
#X obj 323 797 s value;
#X obj 321 392 s all_vala;
#X obj 322 566 s all_valb;
#X obj 324 725 s all_valc;
#X msg 323 771 list valc \$1;
#X obj 972 478 hradio 19 1 0 7 empty empty empty 0 -10 0 12 #fcfcfc #000000 #000000 0;
#X msg 973 510 list s1 \$1;
#X obj 109 336 expr 30000/$f1;
#X obj 973 541 s value;
#X obj 362 79 expr 30000/$f1;
#X text 490 160 moonie loonies;
#X text 598 162 cubes composite;
#X text 702 162 transmuter;
#X text 807 161 infinite conveyor;
#X text 914 161 wavy balls;
#X text 1022 162 spiral;
#X text 973 566 bg image \; 0 none \, 1-4 movie 5 taucher 6 kopfstand;
#X text 1125 162 starships;
#X connect 0 0 3 0;
#X connect 1 0 0 0;
#X connect 3 0 2 0;
#X connect 4 0 0 0;
#X connect 5 0 75 0;
#X connect 5 0 139 0;
#X connect 6 0 7 0;
#X connect 6 0 8 0;
#X connect 7 0 6 1;
#X connect 8 0 9 0;
#X connect 9 0 10 0;
#X connect 9 0 85 0;
#X connect 10 0 11 0;
#X connect 10 1 19 0;
#X connect 10 2 27 0;
#X connect 10 3 35 0;
#X connect 10 4 43 0;
#X connect 10 5 51 0;
#X connect 10 6 59 0;
#X connect 10 7 67 0;
#X connect 11 0 14 0;
#X connect 12 0 13 0;
#X connect 13 0 14 1;
#X connect 14 0 15 0;
#X connect 14 0 142 0;
#X connect 15 0 18 0;
#X connect 15 0 16 0;
#X connect 16 0 17 0;
#X connect 17 0 18 1;
#X connect 18 0 143 0;
#X connect 18 0 144 0;
#X connect 19 0 22 0;
#X connect 20 0 21 0;
#X connect 21 0 22 1;
#X connect 22 0 23 0;
#X connect 22 0 142 0;
#X connect 23 0 26 0;
#X connect 23 0 24 0;
#X connect 24 0 25 0;
#X connect 25 0 26 1;
#X connect 26 0 143 0;
#X connect 26 0 148 0;
#X connect 27 0 30 0;
#X connect 28 0 29 0;
#X connect 29 0 30 1;
#X connect 30 0 31 0;
#X connect 30 0 142 0;
#X connect 31 0 34 0;
#X connect 31 0 32 0;
#X connect 32 0 33 0;
#X connect 33 0 34 1;
#X connect 34 0 143 0;
#X connect 34 0 152 0;
#X connect 35 0 38 0;
#X connect 36 0 37 0;
#X connect 37 0 38 1;
#X connect 38 0 39 0;
#X connect 38 0 142 0;
#X connect 39 0 42 0;
#X connect 39 0 40 0;
#X connect 40 0 41 0;
#X connect 41 0 42 1;
#X connect 42 0 143 0;
#X connect 42 0 156 0;
#X connect 43 0 46 0;
#X connect 44 0 45 0;
#X connect 45 0 46 1;
#X connect 46 0 47 0;
#X connect 46 0 142 0;
#X connect 47 0 50 0;
#X connect 47 0 48 0;
#X connect 48 0 49 0;
#X connect 49 0 50 1;
#X connect 50 0 143 0;
#X connect 50 0 160 0;
#X connect 51 0 54 0;
#X connect 52 0 53 0;
#X connect 53 0 54 1;
#X connect 54 0 55 0;
#X connect 54 0 142 0;
#X connect 55 0 58 0;
#X connect 55 0 56 0;
#X connect 56 0 57 0;
#X connect 57 0 58 1;
#X connect 58 0 143 0;
#X connect 58 0 164 0;
#X connect 59 0 62 0;
#X connect 60 0 61 0;
#X connect 61 0 62 1;
#X connect 62 0 63 0;
#X connect 62 0 142 0;
#X connect 63 0 66 0;
#X connect 63 0 64 0;
#X connect 64 0 65 0;
#X connect 65 0 66 1;
#X connect 66 0 143 0;
#X connect 66 0 168 0;
#X connect 67 0 70 0;
#X connect 68 0 69 0;
#X connect 69 0 70 1;
#X connect 70 0 71 0;
#X connect 70 0 142 0;
#X connect 71 0 74 0;
#X connect 71 0 72 0;
#X connect 72 0 73 0;
#X connect 73 0 74 1;
#X connect 74 0 143 0;
#X connect 74 0 172 0;
#X connect 75 0 6 0;
#X connect 76 0 178 0;
#X connect 77 0 179 0;
#X connect 79 0 4 0;
#X connect 80 0 82 0;
#X connect 81 0 90 0;
#X connect 81 0 184 0;
#X connect 81 0 186 0;
#X connect 82 0 81 0;
#X connect 84 0 96 0;
#X connect 85 0 86 0;
#X connect 90 0 89 0;
#X connect 91 0 95 0;
#X connect 92 0 93 0;
#X connect 93 0 95 0;
#X connect 93 1 95 1;
#X connect 94 0 99 0;
#X connect 95 0 94 0;
#X connect 96 0 0 0;
#X connect 97 0 98 0;
#X connect 98 0 0 0;
#X connect 100 0 103 0;
#X connect 101 0 102 0;
#X connect 102 0 103 0;
#X connect 102 1 103 1;
#X connect 103 0 130 0;
#X connect 105 0 108 0;
#X connect 106 0 107 0;
#X connect 107 0 108 0;
#X connect 107 1 108 1;
#X connect 108 0 131 0;
#X connect 110 0 113 0;
#X connect 111 0 112 0;
#X connect 112 0 113 0;
#X connect 112 1 113 1;
#X connect 113 0 132 0;
#X connect 115 0 118 0;
#X connect 116 0 117 0;
#X connect 117 0 118 0;
#X connect 117 1 118 1;
#X connect 118 0 133 0;
#X connect 120 0 123 0;
#X connect 121 0 122 0;
#X connect 122 0 123 0;
#X connect 122 1 123 1;
#X connect 123 0 134 0;
#X connect 125 0 128 0;
#X connect 126 0 127 0;
#X connect 127 0 128 0;
#X connect 127 1 128 1;
#X connect 128 0 135 0;
#X connect 130 0 104 0;
#X connect 131 0 109 0;
#X connect 132 0 114 0;
#X connect 133 0 119 0;
#X connect 134 0 124 0;
#X connect 135 0 129 0;
#X connect 136 0 137 0;
#X connect 136 0 138 0;
#X connect 137 0 136 1;
#X connect 138 0 141 0;
#X connect 139 0 136 0;
#X connect 141 0 140 0;
#X connect 142 0 87 0;
#X connect 143 0 88 0;
#X connect 144 0 147 0;
#X connect 144 0 145 0;
#X connect 145 0 146 0;
#X connect 146 0 147 1;
#X connect 147 0 181 0;
#X connect 148 0 151 0;
#X connect 148 0 149 0;
#X connect 149 0 150 0;
#X connect 150 0 151 1;
#X connect 151 0 181 0;
#X connect 152 0 155 0;
#X connect 152 0 153 0;
#X connect 153 0 154 0;
#X connect 154 0 155 1;
#X connect 155 0 181 0;
#X connect 156 0 159 0;
#X connect 156 0 157 0;
#X connect 157 0 158 0;
#X connect 158 0 159 1;
#X connect 159 0 181 0;
#X connect 160 0 163 0;
#X connect 160 0 161 0;
#X connect 161 0 162 0;
#X connect 162 0 163 1;
#X connect 163 0 181 0;
#X connect 164 0 167 0;
#X connect 164 0 165 0;
#X connect 165 0 166 0;
#X connect 166 0 167 1;
#X connect 167 0 181 0;
#X connect 168 0 171 0;
#X connect 168 0 169 0;
#X connect 169 0 170 0;
#X connect 170 0 171 1;
#X connect 171 0 181 0;
#X connect 172 0 175 0;
#X connect 172 0 173 0;
#X connect 173 0 174 0;
#X connect 174 0 175 1;
#X connect 175 0 181 0;
#X connect 176 0 180 0;
#X connect 181 0 177 0;
#X connect 182 0 183 0;
#X connect 183 0 185 0;
#X connect 184 0 139 1;
#X connect 186 0 75 1;
#X connect 186 0 83 0;
